<?xml version="1.0" encoding="utf-8"?>
<!-- Generator: Adobe Illustrator 19.0.1, SVG Export Plug-In . SVG Version: 6.00 Build 0)  -->
<svg version="1.1" id="Icons" xmlns="http://www.w3.org/2000/svg" xmlns:xlink="http://www.w3.org/1999/xlink" x="0px" y="0px"
	 viewBox="0 0 30 30" style="enable-background:new 0 0 30 30;" xml:space="preserve">
<style type="text/css">
	.st0{display:none;}
	.st1{display:inline;}
	.st2{fill:#F2F2F2;}
	.st3{fill:#B3B3B3;}
	.st4{display:inline;fill:#F2F2F2;}
	.st5{fill:#808080;}
	.st6{display:inline;fill:none;stroke:#B3B3B3;stroke-miterlimit:10;}
	.st7{fill:#425F6F;}
	.st8{fill:#D05846;}
	.st9{fill:#FFFFFF;}
	.st10{fill:#2470AD;}
	.st11{fill:#CFCDCD;}
	.st12{fill:#33A8DD;}
	.st13{fill:#CA3937;}
	.st14{fill:#3C5B96;}
	.st15{fill:#4E4A48;}
	.st16{fill:url(#SVGID_1_);}
	.st17{fill:url(#SVGID_2_);}
	.st18{fill:#1A1A1A;}
	.st19{fill:#84766F;}
	.st20{opacity:0.5;}
	.st21{fill:#BFB3A3;}
	.st22{fill:#858584;}
</style>
<g id="eye-open_1_">
	<g>
		<path class="st22" d="M15,7.3c-9.3,0-14,8.4-14,8.4s6.7,7,14,7s14-7,14-7S24.3,7.3,15,7.3z M14.2,16l-0.7,0.7
			c-0.5-0.3-0.9-0.8-1.1-1.4l0.8-0.8C13.2,15.2,13.6,15.8,14.2,16z M11.2,14.3c0,2.1,1.7,3.8,3.8,3.8s3.8-1.7,3.8-3.8
			c0-1.3-0.7-2.4-1.6-3.1c1,0.2,2,0.4,3,0.7c0.3,0.7,0.5,1.5,0.5,2.4c0,3.1-2.5,5.6-5.6,5.6s-5.6-2.5-5.6-5.6c0-0.8,0.2-1.6,0.5-2.3
			c0.9-0.3,1.9-0.6,3-0.8C11.9,11.9,11.2,13,11.2,14.3z M7.6,13c-0.1,0.4-0.1,0.9-0.1,1.3c0,2.1,0.8,3.9,2.1,5.3
			c-2.7-1.2-4.9-3-5.9-3.9C4.4,15,5.8,13.9,7.6,13z M20.3,19.7c1.4-1.4,2.2-3.3,2.2-5.4c0-0.5-0.1-1-0.1-1.4c2,0.9,3.6,2,4.3,2.8
			C25.7,16.6,23.3,18.5,20.3,19.7z"/>
	</g>
</g>
</svg>
