<?xml version="1.0" encoding="utf-8"?>
<!-- Generator: Adobe Illustrator 19.0.1, SVG Export Plug-In . SVG Version: 6.00 Build 0)  -->
<svg version="1.1" id="Icons" xmlns="http://www.w3.org/2000/svg" xmlns:xlink="http://www.w3.org/1999/xlink" x="0px" y="0px"
	 viewBox="0 0 147.3 160" style="enable-background:new 0 0 147.3 160;" xml:space="preserve">
<style type="text/css">
	.st0{display:none;}
	.st1{display:inline;}
	.st2{fill:#F2F2F2;}
	.st3{fill:#B3B3B3;}
	.st4{display:inline;fill:#F2F2F2;}
	.st5{fill:#808080;}
	.st6{display:inline;fill:none;stroke:#B3B3B3;stroke-miterlimit:10;}
	.st7{fill:#425F6F;}
	.st8{fill:#D05846;}
	.st9{fill:#FFFFFF;}
	.st10{fill:#2470AD;}
	.st11{fill:#CFCDCD;}
	.st12{fill:#33A8DD;}
	.st13{fill:#CA3937;}
	.st14{fill:#3C5B96;}
	.st15{fill:#4E4A48;}
	.st16{fill:url(#SVGID_1_);}
	.st17{fill:url(#SVGID_2_);}
	.st18{fill:#1A1A1A;}
	.st19{fill:#84766F;}
	.st20{opacity:0.5;}
	.st21{fill:#BFB3A3;}
</style>
<g>
	<path class="st15" d="M115.3,25.9c0,0,5.2-2.4,9,1.2c3.8,3.6,7.5,19.9-2.5,32.1S115.3,25.9,115.3,25.9z"/>
	<path class="st15" d="M32.1,25.9c0,0-5.2-2.4-9,1.2S15.5,47,25.5,59.2S32.1,25.9,32.1,25.9z"/>
	<linearGradient id="SVGID_1_" gradientUnits="userSpaceOnUse" x1="73.6827" y1="160" x2="73.6827" y2="-6.066330e-10">
		<stop  offset="0" style="stop-color:#84766F"/>
		<stop  offset="0.162" style="stop-color:#80726B"/>
		<stop  offset="0.3382" style="stop-color:#736660"/>
		<stop  offset="0.4754" style="stop-color:#635853"/>
		<stop  offset="0.5212" style="stop-color:#6B605A"/>
		<stop  offset="0.6301" style="stop-color:#796C66"/>
		<stop  offset="0.7648" style="stop-color:#82746D"/>
		<stop  offset="1" style="stop-color:#84766F"/>
	</linearGradient>
	<path class="st16" d="M137.9,160c0,0-11.8-20.8-17.9-31.7c-6.1-10.9-14.1-27.2-11.5-35.2c2.6-8,17.6-28.5,12.8-47.4
		c-4.8-18.9-8.6-27.9-15.1-36.2c-6.4-8.3-18-11.7-26.6-8c-6,2.6-6,2.6-11.9,0c-8.6-3.7-20.2-0.3-26.6,8
		c-6.4,8.3-10.2,17.3-15.1,36.2c-4.8,18.9,10.2,39.4,12.8,47.4c2.6,8-5.4,24.3-11.5,35.2C21.3,139.2,9.4,160,9.4,160H137.9z"/>
	<linearGradient id="SVGID_2_" gradientUnits="userSpaceOnUse" x1="73.7479" y1="82.1585" x2="73.7479" y2="7.3705">
		<stop  offset="0" style="stop-color:#BFB3A3"/>
		<stop  offset="4.602909e-03" style="stop-color:#C0B4A4"/>
		<stop  offset="0.1173" style="stop-color:#D0C4B5"/>
		<stop  offset="0.257" style="stop-color:#DBD0C0"/>
		<stop  offset="0.4538" style="stop-color:#E1D6C7"/>
		<stop  offset="1" style="stop-color:#E3D8C9"/>
	</linearGradient>
	<path class="st17" d="M120.4,41.9c-4.8-17.6-9.1-24.9-9.1-24.9C99.8,6.6,91.6,7.1,85.2,7.6c-6.4,0.5-11.5,8.6-11.5,8.6
		s-5-8.2-11.4-8.6C55.9,7.1,47.7,6.6,36.2,17c0,0-3.6,4.6-9.1,24.9c-1.8,6.4-4,15.9,1.2,27.9c3.7,8.6,29.6,21,45.4,3.4
		c15.9,17.6,41.9,5.2,45.6-3.4C124.4,57.8,122.2,48.3,120.4,41.9z"/>
	<path class="st15" d="M44.5,33.8c1.4,2.9,3.3,8.8,5.6,8.5s4.6-2.6,7.5-7c3-4.3,5.8-7,5.7-11.7s-3.2-6.5-5.8-7.4s-6.2-1.4-8.7,0.3
		c-2.6,1.8-4.4,1.8-6.7,0.2c0,0-0.8,2.6,0,4.1c0.8,1.5-2,0.6-4.3,6c-0.7,1.6-2.4,4.7,1.8,5.5S44.5,33.8,44.5,33.8z"/>
	<path class="st18" d="M58.9,27.6c0,0,0.5-6.4-3.4-8s-6.9,1-8.2,4C47.4,23.6,47.4,33.7,58.9,27.6z"/>
	<circle class="st9" cx="55.2" cy="22.3" r="1.1"/>
	<path class="st15" d="M103,33.8c-1.4,2.9-3.3,8.8-5.6,8.5s-4.6-2.6-7.5-7c-3-4.3-5.8-7-5.7-11.7c0.2-4.7,3.2-6.5,5.8-7.4
		s6.2-1.4,8.7,0.3s4.4,1.8,6.7,0.2c0,0,0.8,2.6,0,4.1s2,0.6,4.3,6c0.7,1.6,2.4,4.7-1.8,5.5C103.7,33.2,103,33.8,103,33.8z"/>
	<path class="st18" d="M88.6,27.6c0,0-0.5-6.4,3.4-8s6.9,1,8.2,4C100.1,23.6,100.1,33.7,88.6,27.6z"/>
	<circle class="st9" cx="92.4" cy="22.3" r="1.1"/>
	<g>
		<path class="st19" d="M66.7,59.2c-1.7,0-3.9-0.5-6.3-2.1c-0.4-0.3-0.6-0.9-0.3-1.3c0.3-0.4,0.9-0.6,1.3-0.3c3.9,2.5,6.7,1.9,8.4,1
			c2-1.1,3-3,3-3.9v-4.1c0-0.5,0.4-1,1-1s1,0.4,1,1v4.1c0,1.7-1.4,4.2-4,5.6C69.9,58.7,68.5,59.2,66.7,59.2z"/>
	</g>
	<g>
		<path class="st19" d="M80.9,59.2c-1.8,0-3.2-0.5-4-1c-2.6-1.4-4-4-4-5.6v-4.1c0-0.5,0.4-1,1-1s1,0.4,1,1v4.1c0,1,1,2.9,3,3.9
			c1.7,0.9,4.5,1.5,8.4-1c0.4-0.3,1-0.2,1.3,0.3c0.3,0.4,0.2,1-0.3,1.3C84.8,58.7,82.6,59.2,80.9,59.2z"/>
	</g>
	<path class="st18" d="M73.8,48.5c3.7-0.1,5.6,2.6,8-2.6c1.8-4,0.2-6.8-2.1-9.2c-2.2-2.4-5.9-0.6-5.9-0.6h-0.1c0,0-3.6-1.8-5.9,0.6
		c-2.2,2.4-3.8,5.2-2.1,9.2C68,51.2,70.1,48.5,73.8,48.5z"/>
	<path class="st9" d="M78.3,38.8c0,0.9-2,0.9-4.5,0.9c-2.5,0-4.5,0.3-4.5-0.9c0-0.9,2-0.9,4.5-0.9C76.3,37.9,78.3,37.9,78.3,38.8z"
		/>
	<g class="st20">
		<path class="st19" d="M88.6,42.8c-0.2,0-0.4-0.2-0.5-0.4c-0.1-0.3,0.1-0.5,0.4-0.6l58.3-13.5c0.3-0.1,0.5,0.1,0.6,0.4
			c0.1,0.3-0.1,0.5-0.4,0.6L88.7,42.8C88.6,42.8,88.6,42.8,88.6,42.8z"/>
	</g>
	<g class="st20">
		<path class="st19" d="M135.9,47H88.6c-0.3,0-0.5-0.2-0.5-0.5s0.2-0.5,0.5-0.5h47.4c0.3,0,0.5,0.2,0.5,0.5S136.2,47,135.9,47z"/>
	</g>
	<g class="st20">
		<path class="st19" d="M137.9,69.4c-0.1,0-0.1,0-0.2,0L88.4,50.3c-0.2-0.1-0.4-0.4-0.3-0.6c0.1-0.2,0.4-0.4,0.6-0.3l49.3,19.1
			c0.2,0.1,0.4,0.4,0.3,0.6C138.3,69.3,138.1,69.4,137.9,69.4z"/>
	</g>
	<g class="st20">
		<path class="st19" d="M59,42.2C58.9,42.2,58.9,42.2,59,42.2L0.4,34.8c-0.3,0-0.4-0.3-0.4-0.5c0-0.3,0.3-0.4,0.5-0.4L59,41.3
			c0.3,0,0.4,0.3,0.4,0.5C59.4,42.1,59.2,42.2,59,42.2z"/>
	</g>
	<g class="st20">
		<path class="st19" d="M13.3,49.6c-0.2,0-0.5-0.2-0.5-0.4c0-0.3,0.2-0.5,0.4-0.5L58.9,45c0.3,0,0.5,0.2,0.5,0.4
			c0,0.3-0.2,0.5-0.4,0.5L13.3,49.6C13.3,49.6,13.3,49.6,13.3,49.6z"/>
	</g>
	<g class="st20">
		<path class="st19" d="M3.7,61.7c-0.2,0-0.4-0.2-0.5-0.4c-0.1-0.3,0.1-0.5,0.4-0.6l55.3-11.4c0.3-0.1,0.5,0.1,0.6,0.4
			c0.1,0.3-0.1,0.5-0.4,0.6L3.7,61.7C3.7,61.7,3.7,61.7,3.7,61.7z"/>
	</g>
	<path class="st21" d="M110.8,160c-8.5-39.5-22.4-47.8-37.1-47.8c-15.9,0-28.5,9.5-37.1,47.8"/>
</g>
</svg>
